<?xml version="1.0" standalone="no"?>
<!DOCTYPE svg PUBLIC "-//W3C//DTD SVG 20010904//EN"
 "http://www.w3.org/TR/2001/REC-SVG-20010904/DTD/svg10.dtd">
<svg version="1.0" xmlns="http://www.w3.org/2000/svg"
 width="200.000000pt" height="200.000000pt" viewBox="0 0 200.000000 200.000000"
 preserveAspectRatio="xMidYMid meet">
<metadata>
Created by potrace 1.16, written by Peter Selinger 2001-2019
</metadata>
<g transform="translate(0.000000,200.000000) scale(0.100000,-0.100000)"
fill="#000000" stroke="none">
<path d="M138 1340 c22 -21 20 -48 -5 -63 -11 -7 -11 -12 2 -30 20 -29 20 -58
0 -50 -14 5 -16 -9 -14 -107 1 -84 5 -113 15 -117 19 -7 18 -32 -1 -40 -13 -4
-15 -22 -14 -89 1 -49 5 -81 11 -78 5 3 19 -2 30 -13 21 -18 21 -18 9 5 -10
18 -9 23 4 28 21 9 48 -4 42 -19 -3 -8 1 -14 9 -14 9 0 12 8 8 23 -9 35 5 48
26 24 22 -26 34 -26 18 0 -16 25 -5 35 22 20 20 -11 21 -10 15 9 -10 31 2 25
21 -10 l16 -32 -27 7 c-20 5 -26 3 -23 -6 3 -7 -2 -18 -9 -23 -22 -16 111 -8
145 8 31 15 53 13 99 -11 18 -9 35 -13 38 -10 10 9 -15 49 -26 43 -5 -4 -9 -2
-9 3 0 10 23 22 41 22 4 0 6 -6 3 -13 -3 -8 3 -24 13 -36 18 -22 18 -22 15 23
-4 51 -2 53 33 30 30 -20 32 -30 5 -37 -13 -3 -20 -14 -20 -28 0 -21 1 -22 13
-5 10 13 20 16 35 12 13 -4 19 -12 16 -18 -4 -7 -2 -8 4 -4 14 8 16 36 4 36
-13 0 -47 79 -38 87 4 4 11 1 16 -7 7 -10 10 21 9 90 -1 123 -5 151 -25 143
-8 -3 -14 -1 -14 5 0 5 10 12 23 16 20 5 22 11 19 40 -4 31 -6 34 -23 26 -15
-9 -21 -5 -35 21 -13 26 -14 33 -2 40 18 12 32 11 46 -3 7 -7 12 -8 13 -3 0 6
2 20 3 32 1 12 -3 24 -11 27 -7 3 -13 -1 -13 -8 0 -8 -7 -16 -14 -19 -10 -4
-13 -1 -10 8 3 7 0 23 -6 35 -10 18 -9 24 1 31 23 14 41 10 46 -10 4 -16 11
-18 46 -14 50 7 49 6 41 27 -5 14 -27 16 -165 16 l-159 0 -6 -25 c-3 -14 -12
-25 -18 -25 -26 0 -116 31 -116 40 0 6 -22 10 -50 10 -51 0 -59 -6 -37 -29 10
-11 7 -12 -16 -7 -22 5 -27 4 -22 -6 4 -7 -3 -1 -15 15 -12 15 -29 27 -38 27
-13 0 -12 -4 6 -20z m340 -123 c7 -6 11 -19 9 -29 -3 -10 -1 -21 4 -24 5 -3 9
-14 9 -25 0 -10 5 -19 11 -19 6 0 9 14 6 35 -5 39 6 44 36 18 19 -18 20 -17 8
5 -15 29 -9 37 17 23 30 -16 34 -14 22 12 -11 22 -11 22 9 -2 22 -24 28 -51
12 -51 -6 0 -13 5 -16 10 -11 18 -26 11 -16 -8 8 -15 5 -18 -16 -20 -31 -2
-45 -11 -38 -22 3 -5 -9 -7 -26 -5 -23 3 -30 1 -25 -10 2 -7 0 -16 -7 -19 -13
-5 54 -10 92 -7 45 4 71 -9 84 -42 12 -28 11 -38 -7 -82 -11 -27 -22 -52 -23
-54 -2 -2 -27 1 -57 8 -45 10 -56 17 -66 41 -8 18 -19 28 -31 27 -17 -1 -19
-10 -19 -75 l0 -74 -27 7 c-16 4 -25 3 -21 -1 10 -9 -10 -34 -28 -34 -7 0 -20
13 -28 29 -14 26 -14 29 4 37 17 8 17 12 5 49 -11 29 -11 42 -3 53 10 11 6 13
-23 10 -25 -2 -40 3 -55 18 -12 12 -29 24 -40 26 -10 1 -27 18 -37 36 -17 28
-17 37 -7 63 16 38 77 71 118 63 19 -4 35 -17 46 -37 12 -24 15 -26 12 -9 -2
12 0 22 5 22 5 0 9 7 9 15 0 8 -7 15 -15 15 -21 0 -19 17 4 30 28 15 33 13 26
-11 -6 -18 -5 -19 14 -7 12 7 21 18 21 25 0 13 25 8 48 -10z"/>
<path d="M1119 185 c0 -3 0 -41 0 -85 0 -44 0 -84 0 -90 1 -7 155 -10 441 -10
l440 0 0 95 0 95 -440 0 c-242 0 -440 -3 -441 -5z m646 -72 c0 -19 5 -27 14
-25 7 1 19 -3 27 -9 11 -9 14 -8 14 2 0 12 2 12 9 0 5 -8 11 -9 15 -3 9 15 -4
20 -41 17 -34 -2 -37 2 -27 29 8 21 24 20 25 -1 1 -17 2 -17 6 0 6 22 43 23
43 0 0 -15 1 -15 13 -1 8 10 26 16 51 15 l39 -2 0 -45 0 -45 -106 -1 -105 -1
-4 48 c-2 39 0 49 12 49 11 0 16 -9 15 -27z"/>
</g>
</svg>
